<?xml version="1.0" encoding="utf-8"?>
<!-- Generator: Adobe Illustrator 27.4.0, SVG Export Plug-In . SVG Version: 6.00 Build 0)  -->
<svg version="1.1" id="Layer_1" xmlns="http://www.w3.org/2000/svg" xmlns:xlink="http://www.w3.org/1999/xlink" x="0px" y="0px"
	 viewBox="0 0 2143 2143" style="enable-background:new 0 0 2143 2143;" xml:space="preserve">
<style type="text/css">
	.st0{fill:#F3E8EE;}
</style>
<g transform="translate(0.000000,2143.000000) scale(0.100000,-0.100000)">
	<path class="st0" d="M10395,21373c-1814-52-3594-573-5155-1507c-531-317-1078-717-1575-1151c-219-192-758-731-950-950
		c-956-1095-1653-2301-2106-3645c-651-1927-733-4036-234-6018c642-2559,2232-4804,4440-6271C6047,1012,7393,471,8835,215
		c109-19,202-35,206-35c5,0,9,1647,9,3725v3725H7695H6340v1545v1545h1355h1355v1323c0,799,4,1377,10,1462
		c129,1769,1002,2993,2487,3484c245,81,481,135,764,175c302,43,423,50,819,50c496-1,916-27,1525-94c241-27,715-91,788-106l27-6
		v-1313v-1313l-777-5c-811-5-865-7-1089-52c-603-121-1005-497-1153-1080c-57-226-55-176-58-1397l-4-1128h1475c811,0,1477-3,1479-7
		c2-5-103-699-232-1543l-236-1535l-1243-3l-1242-2V3905V179l33,6c673,113,1267,264,1847,470c847,302,1593,674,2340,1170
		c2095,1389,3642,3487,4344,5890c300,1028,440,2074,423,3160c-9,538-40,927-113,1420c-212,1424-712,2794-1466,4013
		c-438,708-945,1348-1538,1942C16172,20340,13354,21459,10395,21373z"/>
</g>
</svg>
