<?xml version="1.0" encoding="utf-8"?>
<!-- Generator: Adobe Illustrator 27.4.0, SVG Export Plug-In . SVG Version: 6.00 Build 0)  -->
<svg version="1.1" id="Layer_1" xmlns="http://www.w3.org/2000/svg" xmlns:xlink="http://www.w3.org/1999/xlink" x="0px" y="0px"
	 viewBox="0 0 1000 1000" style="enable-background:new 0 0 1000 1000;" xml:space="preserve">
<style type="text/css">
	.st0{fill:#F3E8EE;}
</style>
<path class="st0" d="M292.9,3.5C239.7,6,203.4,14.5,171.6,27c-32.9,12.8-60.7,30-88.4,57.8s-44.8,55.7-57.5,88.6
	C13.4,205.2,5,241.6,2.7,294.8S-0.2,365.2,0.1,501s0.9,152.8,3.4,206.1c2.5,53.2,11,89.5,23.5,121.3c12.8,32.9,30,60.7,57.8,88.5
	s55.7,44.8,88.7,57.5c31.8,12.3,68.2,20.7,121.4,23s70.4,2.9,206.1,2.6s152.8-0.9,206.2-3.4s89.5-11,121.2-23.5
	c32.9-12.9,60.7-30,88.5-57.8s44.8-55.7,57.5-88.7c12.3-31.8,20.7-68.2,23-121.3c2.3-53.4,2.9-70.4,2.6-206.2s-0.9-152.8-3.4-206.1
	s-11-89.5-23.5-121.3c-12.8-32.9-30-60.7-57.8-88.4s-55.7-44.8-88.7-57.5C794.8,13.4,758.4,5,705.2,2.7S634.8-0.2,499,0.1
	S346.2,0.9,292.9,3.5 M298.8,907.4c-48.8-2.1-75.2-10.2-92.9-17c-23.4-9-40-19.9-57.6-37.3s-28.4-34.1-37.5-57.4
	c-6.8-17.6-15.1-44.1-17.4-92.8c-2.5-52.7-3-68.5-3.3-202s0.2-149.3,2.5-202c2.1-48.7,10.2-75.2,17-92.8c9-23.4,19.8-40,37.3-57.6
	s34.1-28.4,57.4-37.5c17.6-6.9,44.1-15.1,92.8-17.4c52.7-2.5,68.5-3,202-3.3s149.3,0.2,202.1,2.5c48.7,2.1,75.2,10.2,92.8,17
	c23.4,9,40,19.8,57.6,37.3s28.4,34.1,37.5,57.4c6.9,17.6,15.1,44,17.4,92.8c2.5,52.7,3.1,68.5,3.3,202s-0.2,149.3-2.5,202
	c-2.1,48.8-10.2,75.2-17,92.9c-9,23.3-19.8,40-37.3,57.6s-34.1,28.4-57.4,37.5c-17.6,6.9-44.1,15.1-92.8,17.4
	c-52.7,2.5-68.5,3-202,3.3S351.5,909.7,298.8,907.4 M706.4,232.8c0.1,33.1,27,60,60.1,59.9s60-27,59.9-60.1s-27-60-60.1-59.9
	c0,0,0,0,0,0C733.1,172.7,706.3,199.6,706.4,232.8 M243.3,500.5c0.3,141.8,115.4,256.5,257.2,256.2S757,641.3,756.8,499.5
	S641.3,243,499.5,243.3S243,358.7,243.3,500.5 M333.3,500.3c-0.2-92,74.3-166.8,166.3-167c92-0.2,166.8,74.3,167,166.3
	c0.2,92-74.3,166.8-166.3,167C408.3,666.9,333.5,592.4,333.3,500.3C333.3,500.3,333.3,500.3,333.3,500.3"/>
</svg>
