<?xml version="1.0" encoding="utf-8"?>
<!-- Generator: Adobe Illustrator 27.4.0, SVG Export Plug-In . SVG Version: 6.00 Build 0)  -->
<svg version="1.1" id="Layer_1" xmlns="http://www.w3.org/2000/svg" xmlns:xlink="http://www.w3.org/1999/xlink" x="0px" y="0px"
	 viewBox="0 0 20 20" style="enable-background:new 0 0 20 20;" xml:space="preserve">
<style type="text/css">
	.st0{fill:#F3E8EE;}
</style>
<path class="st0" d="M3.7,17c-0.7,0-1.4-0.3-1.9-0.8C1.3,15.6,1,15,1,14.3V5.7C1,5,1.3,4.4,1.8,3.8C2.3,3.3,3,3,3.7,3h12.6
	c0.8,0,1.4,0.3,1.9,0.8C18.7,4.4,19,5,19,5.7v8.6c0,0.7-0.3,1.3-0.8,1.9C17.7,16.7,17,17,16.3,17H3.7z M10,12.1l6.3-3.7V5.7L10,9.5
	L3.7,5.7v2.6L10,12.1z"/>
</svg>
