<?xml version="1.0" standalone="no"?>
<!DOCTYPE svg PUBLIC "-//W3C//DTD SVG 20010904//EN"
 "http://www.w3.org/TR/2001/REC-SVG-20010904/DTD/svg10.dtd">
<svg version="1.0" xmlns="http://www.w3.org/2000/svg"
 width="1200.000000pt" height="1200.000000pt" viewBox="0 0 1200.000000 1200.000000"
 preserveAspectRatio="xMidYMid meet">

<g transform="translate(0.000000,1200.000000) scale(0.100000,-0.100000)"
fill="#000000" stroke="none">
<path d="M5600 11994 c-1278 -91 -2483 -574 -3449 -1383 -646 -540 -1147
-1175 -1525 -1931 -329 -659 -514 -1298 -603 -2080 -25 -224 -25 -976 0 -1200
89 -782 274 -1421 603 -2080 330 -660 750 -1223 1279 -1714 439 -407 879 -712
1415 -980 659 -329 1298 -514 2080 -603 224 -25 976 -25 1200 0 782 89 1421
274 2080 603 607 304 1087 650 1565 1128 201 201 307 320 471 526 638 804
1075 1812 1223 2825 50 346 56 428 56 895 0 467 -6 549 -56 895 -149 1020
-598 2049 -1242 2850 -463 574 -987 1033 -1616 1412 -217 131 -608 324 -851
420 -534 211 -1020 331 -1620 399 -105 12 -255 17 -550 19 -223 1 -430 1 -460
-1z m1750 -1991 c0 -43 7 -125 15 -182 88 -619 480 -1154 1047 -1426 209 -101
414 -155 661 -177 l137 -12 0 -674 0 -675 -142 6 c-569 25 -1135 205 -1598
508 l-119 78 -4 -1462 c-4 -1584 -2 -1523 -58 -1787 -50 -230 -173 -536 -300
-747 -78 -128 -213 -305 -325 -422 -587 -617 -1450 -889 -2284 -721 -959 194
-1723 946 -1929 1900 -53 249 -68 598 -36 845 109 829 630 1550 1380 1911 230
110 458 182 705 221 125 19 541 26 653 10 l57 -8 0 -690 c0 -379 -2 -689 -4
-689 -3 0 -42 9 -88 20 -364 89 -767 -29 -1041 -303 -197 -198 -312 -459 -324
-738 -11 -250 50 -471 186 -673 319 -472 928 -634 1431 -381 263 132 462 359
559 639 65 185 61 -11 61 2982 l0 2724 680 0 680 0 0 -77z"/>
</g>
</svg>
