<?xml version="1.0" encoding="utf-8"?>
<!-- Generator: Adobe Illustrator 27.4.0, SVG Export Plug-In . SVG Version: 6.00 Build 0)  -->
<svg version="1.1" id="Layer_1" xmlns="http://www.w3.org/2000/svg" xmlns:xlink="http://www.w3.org/1999/xlink" x="0px" y="0px"
	 viewBox="0 0 1200 1200" style="enable-background:new 0 0 1200 1200;" xml:space="preserve">
<style type="text/css">
	.st0{fill:#F3E8EE;}
</style>
<g transform="translate(0.000000,1200.000000) scale(0.100000,-0.100000)">
	<path class="st0" d="M5600,11994c-1278-91-2483-574-3449-1383c-646-540-1147-1175-1525-1931C297,8021,112,7382,23,6600
		c-25-224-25-976,0-1200c89-782,274-1421,603-2080c330-660,750-1223,1279-1714c439-407,879-712,1415-980c659-329,1298-514,2080-603
		c224-25,976-25,1200,0c782,89,1421,274,2080,603c607,304,1087,650,1565,1128c201,201,307,320,471,526c638,804,1075,1812,1223,2825
		c50,346,56,428,56,895s-6,549-56,895c-149,1020-598,2049-1242,2850c-463,574-987,1033-1616,1412c-217,131-608,324-851,420
		c-534,211-1020,331-1620,399c-105,12-255,17-550,19C5837,11996,5630,11996,5600,11994z M7350,10003c0-43,7-125,15-182
		c88-619,480-1154,1047-1426c209-101,414-155,661-177l137-12v-674v-675l-142,6c-569,25-1135,205-1598,508l-119,78l-4-1462
		c-4-1584-2-1523-58-1787c-50-230-173-536-300-747c-78-128-213-305-325-422c-587-617-1450-889-2284-721c-959,194-1723,946-1929,1900
		c-53,249-68,598-36,845c109,829,630,1550,1380,1911c230,110,458,182,705,221c125,19,541,26,653,10l57-8v-690c0-379-2-689-4-689
		c-3,0-42,9-88,20c-364,89-767-29-1041-303c-197-198-312-459-324-738c-11-250,50-471,186-673c319-472,928-634,1431-381
		c263,132,462,359,559,639c65,185,61-11,61,2982v2724h680h680V10003z"/>
</g>
</svg>
