<?xml version="1.0" standalone="no"?>
<!DOCTYPE svg PUBLIC "-//W3C//DTD SVG 20010904//EN"
 "http://www.w3.org/TR/2001/REC-SVG-20010904/DTD/svg10.dtd">
<svg version="1.0" xmlns="http://www.w3.org/2000/svg"
 width="512.000000pt" height="512.000000pt" viewBox="0 0 512.000000 512.000000"
 preserveAspectRatio="xMidYMid meet">

<g transform="translate(0.000000,512.000000) scale(0.100000,-0.100000)"
fill="#000000" stroke="none">
<path d="M2410 4930 l0 -190 150 0 150 0 0 190 0 190 -150 0 -150 0 0 -190z"/>
<path d="M1345 4428 c-3 -7 -4 -497 -3 -1088 l3 -1075 1215 0 1215 0 0 1085 0
1085 -1213 3 c-965 2 -1214 0 -1217 -10z"/>
<path d="M1120 1810 l0 -150 205 0 205 0 -5 -22 c-3 -13 -63 -376 -135 -808
-72 -432 -132 -795 -135 -808 l-5 -22 153 0 154 0 58 350 58 350 887 0 887 0
58 -350 58 -350 154 0 153 0 -5 22 c-3 13 -63 376 -135 808 -72 432 -132 795
-135 808 l-5 22 205 0 205 0 0 150 0 150 -1440 0 -1440 0 0 -150z m1290 -480
l0 -330 -340 0 c-317 0 -340 1 -340 18 0 9 23 158 51 330 l52 312 289 0 288 0
0 -330z m929 18 c28 -172 51 -321 51 -330 0 -17 -23 -18 -340 -18 l-340 0 0
330 0 330 288 0 289 0 52 -312z"/>
</g>
</svg>
