<?xml version="1.0" encoding="utf-8"?>
<!-- Generator: Adobe Illustrator 27.4.0, SVG Export Plug-In . SVG Version: 6.00 Build 0)  -->
<svg version="1.1" id="Layer_1" xmlns="http://www.w3.org/2000/svg" xmlns:xlink="http://www.w3.org/1999/xlink" x="0px" y="0px"
	 viewBox="0 0 972 223" style="enable-background:new 0 0 972 223;" xml:space="preserve">
<style type="text/css">
	.st0{fill:#F3E8EE;}
</style>
<g>
	<g>
		<path class="st0" d="M146.4,154.6h-42.4l-5.3-22.4H67l-5.5,22.4H20.2L58.3,37.1h49.8L146.4,154.6z M73.3,106.4h19.4l-9.6-40.8
			L73.3,106.4z"/>
		<path class="st0" d="M151.6,154.6v-89h36.8l0.9,22.2c2-7.4,5.1-13.2,9.3-17.5c4.2-4.3,9.8-6.5,16.8-6.5c2.7,0,4.8,0.2,6.2,0.7
			c1.4,0.5,2.4,1,3,1.4l-3.4,32.9c-1.1-0.5-2.6-0.9-4.6-1.2c-2-0.4-4.2-0.5-6.6-0.5c-3.6,0-6.6,0.6-9.3,1.7
			c-2.6,1.1-4.7,2.8-6.1,4.9c-1.5,2.1-2.2,4.9-2.2,8.2v42.7H151.6z"/>
		<path class="st0" d="M301.3,65.6v27.6h-77.1V65.6H301.3z M278.9,35.3v82.9c0,4,0.9,6.9,2.6,8.6c1.7,1.7,4.4,2.6,8.1,2.6
			c2.4,0,4.5-0.2,6.2-0.5c1.8-0.4,3.4-0.9,5-1.8l1.8,23.1c-3,1.9-7,3.4-12.1,4.5c-5.1,1.1-9.9,1.6-14.4,1.6c-8.3,0-15.3-1-20.9-3.1
			c-5.6-2.1-9.9-5.4-12.8-10.1c-2.9-4.6-4.4-10.8-4.4-18.5v-78L278.9,35.3z"/>
		<path class="st0" d="M374.8,37.1c10.6,0,19.5,1.6,26.9,4.8c7.4,3.2,12.9,7.9,16.7,14.1c3.8,6.2,5.7,13.7,5.7,22.6
			s-1.9,16.4-5.7,22.6c-3.8,6.2-9.4,10.9-16.7,14.1c-7.4,3.2-16.3,4.8-26.9,4.8H354v34.5h-41.5V37.1H374.8z M368,90.7
			c4.5,0,8.1-1,10.7-2.9c2.6-2,3.9-5,3.9-9.2c0-4.2-1.3-7.2-3.9-9.2c-2.6-2-6.2-2.9-10.7-2.9H354v24.2H368z"/>
		<path class="st0" d="M484.4,99.1c0-2.7-0.6-4.9-1.9-6.4c-1.2-1.5-3.2-2.3-5.8-2.3c-2.5,0-4.6,0.7-6.2,2.1
			c-1.7,1.4-2.6,4.3-2.8,8.5l-34.5-5c0.8-9.8,5.1-17.7,12.8-23.5c7.7-5.8,18.9-8.7,33.6-8.7c10.3,0,18.8,1.4,25.5,4.3
			c6.7,2.8,11.7,6.8,15,11.9c3.3,5.1,4.9,11,4.9,17.8v27.6c0,4.9,2.3,7.3,6.9,7.3c1.3,0,2.3-0.2,3-0.5l-1.8,21
			c-4.4,2.1-9.7,3.2-15.8,3.2c-5.6,0-10.5-0.8-14.9-2.4c-4.3-1.6-7.7-4-10.1-7.3c-2.4-3.3-3.6-7.4-3.6-12.5v-1.8h3.9
			c-0.1,4.5-1.6,8.6-4.4,12.2c-2.8,3.6-6.5,6.5-11.1,8.6s-9.9,3.2-15.8,3.2c-6.3,0-11.6-1-15.9-2.8c-4.3-1.9-7.6-4.6-9.9-8.2
			c-2.3-3.6-3.4-7.8-3.4-12.6c0-6.5,2.1-11.8,6.2-15.9c4.2-4.1,10.1-6.9,18-8.5l31-6.4l-0.2,14.4l-9.6,2.3c-2.5,0.6-4.3,1.6-5.3,2.9
			c-1.1,1.4-1.6,3.1-1.6,5.1c0,1.9,0.6,3.4,1.8,4.6c1.2,1.2,2.8,1.8,5,1.8c0.9,0,1.9-0.2,2.8-0.5c0.9-0.4,1.7-0.9,2.3-1.6
			c0.7-0.7,1.2-1.6,1.5-2.6c0.4-1,0.5-2.2,0.5-3.5V99.1z"/>
		<path class="st0" d="M581.8,30v89.2c0,3.6,0.5,6.2,1.6,7.8c1.1,1.7,3,2.5,5.7,2.5c1.3,0,2.5-0.1,3.5-0.3c1-0.2,2-0.4,2.9-0.6
			l-1.8,22.1c-2.3,1.7-5.5,3-9.7,4.1c-4.2,1.1-8.3,1.6-12.4,1.6c-11,0-18.9-2.4-23.7-7.1c-4.7-4.7-7.1-12.7-7.1-23.9V30H581.8z"/>
		<path class="st0" d="M601.6,154.6v-89h36.8l0.9,19.4c2.6-6.8,6.5-12,11.7-15.7c5.2-3.7,11.6-5.5,19.2-5.5c6.8,0,12.4,1.5,16.8,4.6
			c4.5,3.1,7.6,7.5,9.5,13.2c1.9-3.8,4.2-7,7-9.7c2.8-2.7,6.1-4.7,9.8-6.1c3.7-1.4,7.9-2,12.5-2c5.9,0,11,1.2,15.1,3.5
			c4.2,2.3,7.3,5.7,9.5,10.1c2.2,4.5,3.3,9.9,3.3,16.3v60.9H713v-50.2c0-4-0.5-6.8-1.5-8.2c-1-1.4-2.6-2.1-4.7-2.1
			c-1.9,0-3.5,0.5-4.8,1.4c-1.3,1-2.3,2.5-2.8,4.5c-0.6,2.1-0.9,4.7-0.9,7.9v46.6h-40.9v-50.2c0-4-0.5-6.8-1.5-8.2
			c-1-1.4-2.6-2.1-4.7-2.1c-1.9,0-3.5,0.5-4.8,1.4c-1.3,1-2.3,2.5-2.8,4.5c-0.6,2.1-0.9,4.7-0.9,7.9v46.6H601.6z"/>
		<path class="st0" d="M815.2,156.4c-10.7,0-19.8-1.8-27.4-5.4c-7.6-3.6-13.4-8.9-17.4-15.8c-4-6.9-6.1-15.2-6.1-25.1
			c0-9.8,2-18.2,6.1-25.1c4.1-6.9,9.8-12.1,17.3-15.8c7.4-3.6,16-5.4,25.9-5.4c10.1,0,18.7,1.8,25.7,5.4c7.1,3.6,12.4,8.7,16.1,15.2
			c3.7,6.5,5.5,14.1,5.5,22.8c0,1.9-0.1,3.9-0.3,5.9c-0.2,2-0.4,3.6-0.6,4.8h-69.4v-15.1h51.6l-19.4,7.7c0-6.4-0.6-11.3-1.7-14.6
			c-1.1-3.3-3.6-5-7.4-5c-2.5,0-4.5,0.6-6.1,1.8c-1.6,1.2-2.8,3.2-3.5,6.1c-0.7,2.9-1.1,6.9-1.1,12c0,5.1,0.5,9,1.4,11.7
			c0.9,2.7,2.3,4.5,4.2,5.3c1.8,0.9,4.2,1.3,7,1.3c3.1,0,5.5-0.7,7.2-2c1.7-1.4,2.9-3.2,3.5-5.6l32.9,8.9
			c-1.3,5.8-4.2,10.7-8.7,14.5c-4.5,3.9-9.9,6.7-16.1,8.6C828.2,155.4,821.8,156.4,815.2,156.4z"/>
		<path class="st0" d="M870.9,154.6v-89h36.8l0.9,22.2c2-7.4,5.1-13.2,9.3-17.5c4.2-4.3,9.8-6.5,16.8-6.5c2.7,0,4.8,0.2,6.2,0.7
			c1.4,0.5,2.4,1,3,1.4l-3.4,32.9c-1.1-0.5-2.6-0.9-4.6-1.2c-2-0.4-4.2-0.5-6.6-0.5c-3.6,0-6.6,0.6-9.3,1.7
			c-2.6,1.1-4.7,2.8-6.1,4.9c-1.5,2.1-2.2,4.9-2.2,8.2v42.7H870.9z"/>
	</g>
</g>
</svg>
