<?xml version="1.0" standalone="no"?>
<!DOCTYPE svg PUBLIC "-//W3C//DTD SVG 20010904//EN"
 "http://www.w3.org/TR/2001/REC-SVG-20010904/DTD/svg10.dtd">
<svg version="1.0" xmlns="http://www.w3.org/2000/svg"
 width="972.000000pt" height="223.000000pt" viewBox="0 0 972.000000 223.000000"
 preserveAspectRatio="xMidYMid meet">

<g transform="translate(0.000000,223.000000) scale(0.100000,-0.100000)"
fill="#000000" stroke="none">
<path d="M5615 1814 c-132 -18 -240 -33 -241 -34 -4 -2 24 -171 29 -176 4 -4
64 0 134 9 70 9 127 16 128 14 3 -3 115 -870 115 -883 0 -6 -47 -16 -107 -23
-168 -20 -156 -13 -148 -85 3 -33 9 -75 13 -91 l7 -31 370 49 c204 27 372 51
374 53 5 5 -15 173 -21 179 -2 3 -59 -3 -126 -12 -67 -9 -124 -14 -126 -12 -2
2 -33 236 -70 519 -71 538 -74 561 -85 559 -3 -1 -114 -16 -246 -35z"/>
<path d="M725 1489 c-297 -170 -541 -313 -543 -318 -3 -8 149 -153 167 -159 5
-2 52 25 105 58 54 34 103 63 111 66 14 6 275 -221 275 -238 0 -5 -25 -59 -56
-120 l-56 -112 83 -75 c45 -42 87 -76 93 -76 6 0 127 258 270 574 l259 574
-74 68 c-41 38 -78 68 -84 68 -5 0 -253 -139 -550 -310z m315 -199 l-101 -201
-22 18 c-13 10 -54 46 -92 80 -55 50 -67 65 -57 75 16 16 354 227 365 228 4 0
-38 -90 -93 -200z"/>
<path d="M3988 1748 c-31 -4 -103 -25 -160 -46 -215 -82 -348 -137 -348 -144
0 -9 440 -1111 446 -1117 4 -4 214 79 214 85 0 2 -36 94 -80 205 -45 111 -80
203 -78 204 2 2 50 22 108 45 173 71 248 130 307 242 25 48 28 63 28 153 0 93
-2 105 -33 167 -76 155 -223 230 -404 206z m123 -223 c74 -48 110 -173 73
-252 -23 -48 -65 -77 -178 -123 l-97 -39 -14 32 c-53 128 -125 313 -125 322 0
10 23 21 160 71 76 29 126 26 181 -11z"/>
<path d="M2706 1693 c-3 -26 -8 -76 -12 -111 l-6 -64 -87 7 c-47 4 -93 9 -102
11 -13 4 -17 -9 -23 -77 -4 -45 -4 -84 -2 -87 3 -2 47 -9 98 -14 51 -5 94 -11
96 -13 2 -2 -6 -108 -18 -236 -12 -133 -19 -252 -15 -278 26 -176 152 -263
378 -260 45 0 107 6 137 12 l55 12 3 60 c2 32 0 70 -3 83 -6 23 -8 23 -83 17
-148 -13 -232 23 -252 109 -5 24 -1 114 12 249 11 117 21 213 22 213 0 1 74
-5 164 -14 89 -8 164 -13 166 -11 2 2 7 40 11 85 l7 80 -163 15 -164 14 0 40
c0 22 4 72 8 111 l7 72 -98 6 c-53 4 -104 9 -114 12 -13 4 -17 -5 -22 -43z"/>
<path d="M6677 1638 c-8 -18 -87 -203 -176 -412 -89 -208 -159 -381 -156 -384
14 -14 181 -80 187 -74 3 4 63 142 133 307 70 165 136 308 147 318 11 9 30 17
42 17 26 0 66 -34 66 -57 0 -9 -58 -154 -130 -323 -71 -168 -130 -311 -130
-317 0 -13 171 -86 181 -76 4 5 64 143 134 308 70 165 135 308 143 318 22 24
59 21 88 -9 19 -18 24 -31 20 -49 -4 -14 -64 -161 -135 -327 l-129 -303 90
-38 c49 -21 94 -37 99 -35 18 6 279 634 290 695 17 104 -11 166 -93 207 -59
30 -103 33 -155 11 -39 -16 -53 -9 -53 26 0 27 -41 70 -84 90 -57 26 -114 24
-169 -5 l-45 -25 15 45 c8 25 14 46 12 48 -4 2 -32 14 -146 63 -32 13 -33 13
-46 -19z"/>
<path d="M2077 1529 c-88 -21 -185 -93 -235 -177 l-19 -33 -13 59 c-19 90 -13
87 -126 68 -54 -10 -100 -19 -102 -21 -6 -5 143 -874 151 -881 4 -4 122 14
203 31 21 5 20 7 -25 272 -30 182 -42 278 -37 298 4 17 29 51 55 76 56 54 119
75 255 85 l88 7 -6 36 c-3 20 -6 71 -6 114 l0 77 -72 -1 c-40 -1 -90 -5 -111
-10z"/>
<path d="M4787 1509 c-57 -13 -132 -55 -171 -95 -31 -32 -75 -128 -64 -140 4
-4 176 -23 211 -24 9 0 17 6 17 14 0 26 41 66 81 77 30 10 51 9 94 0 90 -20
136 -84 121 -165 l-6 -32 -178 1 c-174 0 -178 -1 -239 -28 -72 -34 -105 -65
-132 -127 -68 -155 -3 -310 155 -370 108 -41 253 -28 335 30 l29 21 0 -30 c0
-54 15 -59 220 -74 18 -1 24 2 21 13 -14 52 -10 214 9 417 25 265 21 300 -44
384 -79 104 -300 166 -459 128z m236 -505 l37 -7 -5 -51 c-13 -111 -14 -115
-55 -143 -53 -34 -159 -44 -212 -19 -88 42 -81 161 13 208 35 19 145 24 222
12z"/>
<path d="M8596 1483 c-8 -48 -106 -838 -106 -851 0 -9 217 -39 224 -31 2 2 19
121 36 264 35 281 40 299 105 344 65 44 133 51 250 25 39 -8 82 -17 96 -20 25
-6 27 -3 54 95 15 55 25 107 22 115 -3 8 -38 21 -83 31 -140 32 -249 9 -343
-71 l-41 -36 0 70 c0 80 7 75 -115 87 -33 4 -67 9 -77 11 -12 4 -18 -4 -22
-33z"/>
<path d="M7906 1479 c-243 -36 -392 -256 -356 -527 24 -184 119 -309 285 -372
48 -18 80 -23 160 -23 113 0 194 22 277 74 51 33 131 115 126 129 -2 5 -30 32
-62 60 l-60 50 -32 -35 c-40 -44 -122 -82 -195 -91 -75 -9 -144 14 -191 64
-37 38 -73 100 -64 109 2 3 119 18 258 34 377 42 338 33 338 82 -1 116 -52
257 -121 332 -89 97 -216 136 -363 114z m139 -198 c51 -23 92 -71 101 -117 3
-19 5 -36 3 -38 -2 -2 -74 -11 -159 -20 -85 -10 -167 -19 -182 -22 -26 -5 -28
-3 -28 28 1 73 55 148 127 173 52 19 91 18 138 -4z"/>
</g>
</svg>
